<svg xmlns="http://www.w3.org/2000/svg" xmlns:xlink="http://www.w3.org/1999/xlink" viewBox="0,0,256,256" width="64px" height="64px" fill-rule="nonzero"><g fill="#ffffff" fill-rule="nonzero" stroke="none" stroke-width="1" stroke-linecap="butt" stroke-linejoin="miter" stroke-miterlimit="10" stroke-dasharray="" stroke-dashoffset="0" font-family="none" font-weight="none" font-size="none" text-anchor="none" style="mix-blend-mode: normal"><g transform="scale(8,8)"><path d="M29,9l-1.55078,0.10938l-1.14844,2.25l-0.65039,-2.12891l-1.61133,0.10938l0.2207,0.58984c-0.42,-0.47 -1.18055,-0.53047 -1.81055,-0.48047l-1.96875,0.13086l-0.16016,1.58008c-0.05,-0.05 -0.64992,-1.63023 -2.66992,-1.49023c-2.04,0.13 -2.80969,1.66984 -3.17969,2.33984l0.19922,-2.0293l-1.42969,0.08984l-0.32031,3.2793l-1.89062,-3.12891l-1.34961,0.08984l-0.5,5.16016l-1.5293,-5.03125l-1.20117,0.08008l-2.84961,6.00977l1.59961,-0.09961l0.40039,-0.90039l1.98047,-0.12891l0.2207,0.85937l2.83984,-0.17969l0.30859,-3.25977l1.88086,3.11914l1.25,-0.08008l0.19922,-1.99023c0.49,1.43 1.46148,2.02164 2.77148,1.93164c2,-0.12 2.64852,-1.41109 2.97852,-1.87109l-0.16016,1.55078l1.41992,-0.08984l0.20117,-1.89062l0.95898,1.82031l1.82031,-0.12109l-1.25977,-1.91992c1.14,-0.46 1.64961,-1.33945 1.59961,-2.43945l0.79102,2.12109l-0.24023,2.17969l1.41992,-0.08984l0.24023,-2.18164zM21.76953,10.78906c0.62,-0.03 0.97039,0.00156 1.15039,0.10156c0.14,0.08 0.19992,0.24953 0.16992,0.51953c-0.03,0.28 -0.15891,0.46984 -0.37891,0.58984c-0.21,0.11 -0.57008,0.18094 -1.08008,0.21094zM17.56055,11.11914c0.2,-0.01 0.40938,0.04109 0.60938,0.12109c0.16,0.08 0.35078,0.22039 0.55078,0.40039l1.55859,-0.10156l-0.05859,0.5918l-3.15039,0.20899l-0.12109,1.17969l1.71094,-0.10937c-0.23,0.31 -0.47977,0.55922 -0.75977,0.69922c-0.21,0.12 -0.43016,0.19094 -0.66016,0.21094c-0.43,0.03 -0.79031,-0.10062 -1.07031,-0.39062c-0.29,-0.3 -0.40937,-0.68039 -0.35937,-1.15039c0.05,-0.49 0.26039,-0.88898 0.65039,-1.20899c0.33,-0.27 0.69961,-0.43117 1.09961,-0.45117zM6.88086,12.40039l0.41992,1.84961l-1.19141,0.08008zM32,15.11914l-4.66016,0.31055l-1.58008,4.06055l-0.67969,-3.91992l-1.51953,0.09961l1.18945,5.81055l1.59961,-0.09961l2.36133,-5.69141l-0.63086,5.58008l3.23047,-0.19922l0.15039,-1.29102l-1.7207,0.11133l0.11914,-0.99023l1.7207,-0.11133l0.16016,-1.38867l-1.73047,0.11914l0.09961,-0.90039l1.73047,-0.10937zM23.40039,15.67969l-1.41992,0.09961l-0.64062,5.91016l1.41016,-0.08984zM21.74023,15.80078l-3.75,0.23828l-0.14062,1.38086l1.11133,-0.07031l-0.44141,4.2207l-1.60937,-5.45117l-1.18945,0.07031l-2.75,5.78125l0.10938,-1.02148l-1.82031,0.11133l0.09961,-0.98047l1.82031,-0.10937l0.13086,-1.38086l-1.82031,0.10938l0.08984,-0.87891l1.82031,-0.12109l0.12891,-1.36914l-3.24023,0.19922l-0.12891,1.32031c-0.19,-0.99 -1.12109,-1.23992 -2.12109,-1.16992l-1.94922,0.12109l-0.14062,1.51953c-0.18,-0.28 -0.67859,-1.53992 -2.55859,-1.41992c-2.04,0.13 -3.25086,1.77875 -3.38086,3.21875c-0.16,1.84 1.18031,2.97109 2.82031,2.87109c1.25,-0.07 2.29961,-0.86977 2.84961,-1.75977l-0.14062,1.42969l1.41016,-0.08008l0.18164,-1.83984l0.96875,1.76953l6.31055,-0.37891l0.40039,-0.80078l1.96875,-0.13086l0.21094,0.77148l2.90039,-0.18164l0.49023,-4.5293l1.20898,-0.08008zM7.98633,18.03906c0.51328,0.01312 0.74813,0.15086 0.70313,0.63086c-0.07,0.69 -0.72945,0.75102 -1.43945,0.79102l0.13086,-1.40039c0.2325,-0.015 0.43437,-0.02586 0.60547,-0.02148zM16.11914,18.08008l0.39063,1.85938l-1.17969,0.08008zM3.25,18.34961c0.59,-0.04 0.98055,0.17125 1.31055,0.78125l1.32031,-0.08008l-0.13086,1.46875l-1.34961,0.08008c-0.38,0.51 -0.81117,0.89969 -1.45117,0.92969c-1.07,0.07 -1.49969,-0.7493 -1.42969,-1.5293c0.06,-0.78 0.78047,-1.59039 1.73047,-1.65039zM10.0293,19.19922l-0.28906,2.96094l-1.09961,-1.65039c0.66,-0.27 1.13867,-0.64055 1.38867,-1.31055z"></path></g></g></svg>